# MagicaVoxel @ Ephtracy

# group
o 

# material
mtllib diamond_sword.mtl
usemtl palette

# normals
vn -1 0 0
vn 1 0 0
vn 0 0 1
vn 0 0 -1
vn 0 -1 0
vn 0 1 0

# texcoords
vt 0.396484 0.5
vt 0.560547 0.5
vt 0.587891 0.5
vt 0.611328 0.5
vt 0.634766 0.5

# verts
v -0.8 1.3 0
v -0.8 1.3 -0.1
v -0.8 1.6 0
v -0.8 1.6 -0.1
v -0.7 1.2 0
v -0.7 1.2 -0.1
v -0.7 1.3 0
v -0.7 1.3 -0.1
v -0.6 1.1 0
v -0.6 1.1 -0.1
v -0.6 1.2 0
v -0.6 1.2 -0.1
v -0.5 1 0
v -0.5 1 -0.1
v -0.5 1.1 0
v -0.5 1.1 -0.1
v -0.4 0.9 0
v -0.4 0.9 -0.1
v -0.4 1 0
v -0.4 1 -0.1
v -0.3 0.8 0
v -0.3 0.8 -0.1
v -0.3 0.9 0
v -0.3 0.9 -0.1
v -0.2 0.2 0
v -0.2 0.2 -0.1
v -0.2 0.4 0
v -0.2 0.4 -0.1
v -0.2 0.7 0
v -0.2 0.7 -0.1
v -0.2 0.8 0
v -0.2 0.8 -0.1
v -0.1 0.4 0
v -0.1 0.4 -0.1
v -0.1 0.5 0
v -0.1 0.5 -0.1
v -0.1 0.6 0
v -0.1 0.6 -0.1
v -0.1 0.7 0
v -0.1 0.7 -0.1
v 0 0.5 0
v 0 0.5 -0.1
v 0 0.6 0
v 0 0.6 -0.1
v 0.3 0.3 0
v 0.3 0.3 -0.1
v 0.3 0.4 0
v 0.3 0.4 -0.1
v 0.3 0.8 0
v 0.3 0.8 -0.1
v 0.3 0.9 0
v 0.3 0.9 -0.1
v 0.4 0.2 0
v 0.4 0.2 -0.1
v 0.4 0.3 0
v 0.4 0.3 -0.1
v 0.4 0.9 0
v 0.4 0.9 -0.1
v 0.4 1 0
v 0.4 1 -0.1
v 0.5 0 0
v 0.5 0 -0.1
v 0.5 0.2 0
v 0.5 0.2 -0.1
v -0.5 1.5 0
v -0.5 1.5 -0.1
v -0.5 1.6 0
v -0.5 1.6 -0.1
v -0.4 1.4 0
v -0.4 1.4 -0.1
v -0.4 1.5 0
v -0.4 1.5 -0.1
v -0.3 1.3 0
v -0.3 1.3 -0.1
v -0.3 1.4 0
v -0.3 1.4 -0.1
v -0.2 1.2 0
v -0.2 1.2 -0.1
v -0.2 1.3 0
v -0.2 1.3 -0.1
v -0.1 1.1 0
v -0.1 1.1 -0.1
v -0.1 1.2 0
v -0.1 1.2 -0.1
v 0 0.2 0
v 0 0.2 -0.1
v 0 0.3 0
v 0 0.3 -0.1
v 0 1 0
v 0 1 -0.1
v 0 1.1 0
v 0 1.1 -0.1
v 0.1 0.3 0
v 0.1 0.3 -0.1
v 0.1 0.4 0
v 0.1 0.4 -0.1
v 0.1 0.9 0
v 0.1 0.9 -0.1
v 0.1 1 0
v 0.1 1 -0.1
v 0.2 0.8 0
v 0.2 0.8 -0.1
v 0.2 0.9 0
v 0.2 0.9 -0.1
v 0.4 0.5 0
v 0.4 0.5 -0.1
v 0.4 0.6 0
v 0.4 0.6 -0.1
v 0.4 0.7 0
v 0.4 0.7 -0.1
v 0.5 0.4 0
v 0.5 0.4 -0.1
v 0.5 0.5 0
v 0.5 0.5 -0.1
v 0.5 0.7 0
v 0.5 0.7 -0.1
v 0.5 0.8 0
v 0.5 0.8 -0.1
v 0.6 0.3 0
v 0.6 0.3 -0.1
v 0.6 0.4 0
v 0.6 0.4 -0.1
v 0.6 0.8 0
v 0.6 0.8 -0.1
v 0.6 1 0
v 0.6 1 -0.1
v 0.8 0 0
v 0.8 0 -0.1
v 0.8 0.3 0
v 0.8 0.3 -0.1
v -0.8 1.3 0
v -0.8 1.6 0
v -0.7 1.2 0
v -0.7 1.3 0
v -0.7 1.5 0
v -0.6 1.1 0
v -0.6 1.2 0
v -0.6 1.3 0
v -0.6 1.4 0
v -0.5 1 0
v -0.5 1.1 0
v -0.5 1.2 0
v -0.5 1.3 0
v -0.5 1.4 0
v -0.5 1.5 0
v -0.5 1.6 0
v -0.4 0.9 0
v -0.4 1 0
v -0.4 1.1 0
v -0.4 1.2 0
v -0.4 1.3 0
v -0.4 1.4 0
v -0.4 1.5 0
v -0.3 0.8 0
v -0.3 0.9 0
v -0.3 1 0
v -0.3 1.1 0
v -0.3 1.2 0
v -0.3 1.3 0
v -0.3 1.4 0
v -0.2 0.2 0
v -0.2 0.4 0
v -0.2 0.7 0
v -0.2 0.8 0
v -0.2 0.9 0
v -0.2 1 0
v -0.2 1.1 0
v -0.2 1.2 0
v -0.2 1.3 0
v -0.1 0.3 0
v -0.1 0.4 0
v -0.1 0.5 0
v -0.1 0.6 0
v -0.1 0.7 0
v -0.1 0.8 0
v -0.1 0.9 0
v -0.1 1 0
v -0.1 1.1 0
v -0.1 1.2 0
v 0 0.2 0
v 0 0.3 0
v 0 0.4 0
v 0 0.5 0
v 0 0.6 0
v 0 0.7 0
v 0 0.8 0
v 0 0.9 0
v 0 1 0
v 0 1.1 0
v 0.1 0.3 0
v 0.1 0.4 0
v 0.1 0.5 0
v 0.1 0.6 0
v 0.1 0.7 0
v 0.1 0.8 0
v 0.1 0.9 0
v 0.1 1 0
v 0.2 0.4 0
v 0.2 0.5 0
v 0.2 0.7 0
v 0.2 0.8 0
v 0.2 0.9 0
v 0.3 0.3 0
v 0.3 0.4 0
v 0.3 0.5 0
v 0.3 0.6 0
v 0.3 0.7 0
v 0.3 0.8 0
v 0.3 0.9 0
v 0.4 0.2 0
v 0.4 0.3 0
v 0.4 0.4 0
v 0.4 0.5 0
v 0.4 0.6 0
v 0.4 0.7 0
v 0.4 0.8 0
v 0.4 0.9 0
v 0.4 1 0
v 0.5 0 0
v 0.5 0.2 0
v 0.5 0.3 0
v 0.5 0.4 0
v 0.5 0.5 0
v 0.5 0.7 0
v 0.5 0.8 0
v 0.5 0.9 0
v 0.6 0.1 0
v 0.6 0.2 0
v 0.6 0.3 0
v 0.6 0.4 0
v 0.6 0.8 0
v 0.6 1 0
v 0.7 0.1 0
v 0.7 0.2 0
v 0.8 0 0
v 0.8 0.3 0
v -0.8 1.3 -0.1
v -0.8 1.6 -0.1
v -0.7 1.2 -0.1
v -0.7 1.3 -0.1
v -0.7 1.5 -0.1
v -0.6 1.1 -0.1
v -0.6 1.2 -0.1
v -0.6 1.3 -0.1
v -0.6 1.4 -0.1
v -0.5 1 -0.1
v -0.5 1.1 -0.1
v -0.5 1.2 -0.1
v -0.5 1.3 -0.1
v -0.5 1.4 -0.1
v -0.5 1.5 -0.1
v -0.5 1.6 -0.1
v -0.4 0.9 -0.1
v -0.4 1 -0.1
v -0.4 1.1 -0.1
v -0.4 1.2 -0.1
v -0.4 1.3 -0.1
v -0.4 1.4 -0.1
v -0.4 1.5 -0.1
v -0.3 0.8 -0.1
v -0.3 0.9 -0.1
v -0.3 1 -0.1
v -0.3 1.1 -0.1
v -0.3 1.2 -0.1
v -0.3 1.3 -0.1
v -0.3 1.4 -0.1
v -0.2 0.2 -0.1
v -0.2 0.4 -0.1
v -0.2 0.7 -0.1
v -0.2 0.8 -0.1
v -0.2 0.9 -0.1
v -0.2 1 -0.1
v -0.2 1.1 -0.1
v -0.2 1.2 -0.1
v -0.2 1.3 -0.1
v -0.1 0.3 -0.1
v -0.1 0.4 -0.1
v -0.1 0.5 -0.1
v -0.1 0.6 -0.1
v -0.1 0.7 -0.1
v -0.1 0.8 -0.1
v -0.1 0.9 -0.1
v -0.1 1 -0.1
v -0.1 1.1 -0.1
v -0.1 1.2 -0.1
v 0 0.2 -0.1
v 0 0.3 -0.1
v 0 0.4 -0.1
v 0 0.5 -0.1
v 0 0.6 -0.1
v 0 0.7 -0.1
v 0 0.8 -0.1
v 0 0.9 -0.1
v 0 1 -0.1
v 0 1.1 -0.1
v 0.1 0.3 -0.1
v 0.1 0.4 -0.1
v 0.1 0.5 -0.1
v 0.1 0.6 -0.1
v 0.1 0.7 -0.1
v 0.1 0.8 -0.1
v 0.1 0.9 -0.1
v 0.1 1 -0.1
v 0.2 0.4 -0.1
v 0.2 0.5 -0.1
v 0.2 0.7 -0.1
v 0.2 0.8 -0.1
v 0.2 0.9 -0.1
v 0.3 0.3 -0.1
v 0.3 0.4 -0.1
v 0.3 0.5 -0.1
v 0.3 0.6 -0.1
v 0.3 0.7 -0.1
v 0.3 0.8 -0.1
v 0.3 0.9 -0.1
v 0.4 0.2 -0.1
v 0.4 0.3 -0.1
v 0.4 0.4 -0.1
v 0.4 0.5 -0.1
v 0.4 0.6 -0.1
v 0.4 0.7 -0.1
v 0.4 0.8 -0.1
v 0.4 0.9 -0.1
v 0.4 1 -0.1
v 0.5 0 -0.1
v 0.5 0.2 -0.1
v 0.5 0.3 -0.1
v 0.5 0.4 -0.1
v 0.5 0.5 -0.1
v 0.5 0.7 -0.1
v 0.5 0.8 -0.1
v 0.5 0.9 -0.1
v 0.6 0.1 -0.1
v 0.6 0.2 -0.1
v 0.6 0.3 -0.1
v 0.6 0.4 -0.1
v 0.6 0.8 -0.1
v 0.6 1 -0.1
v 0.7 0.1 -0.1
v 0.7 0.2 -0.1
v 0.8 0 -0.1
v 0.8 0.3 -0.1
v 0.5 0 0
v 0.8 0 0
v 0.5 0 -0.1
v 0.8 0 -0.1
v -0.2 0.2 0
v 0 0.2 0
v 0.4 0.2 0
v 0.5 0.2 0
v -0.2 0.2 -0.1
v 0 0.2 -0.1
v 0.4 0.2 -0.1
v 0.5 0.2 -0.1
v 0 0.3 0
v 0.1 0.3 0
v 0.3 0.3 0
v 0.4 0.3 0
v 0 0.3 -0.1
v 0.1 0.3 -0.1
v 0.3 0.3 -0.1
v 0.4 0.3 -0.1
v 0.1 0.4 0
v 0.2 0.4 0
v 0.3 0.4 0
v 0.1 0.4 -0.1
v 0.2 0.4 -0.1
v 0.3 0.4 -0.1
v -0.1 0.6 0
v 0 0.6 0
v -0.1 0.6 -0.1
v 0 0.6 -0.1
v -0.2 0.7 0
v -0.1 0.7 0
v 0.4 0.7 0
v 0.5 0.7 0
v -0.2 0.7 -0.1
v -0.1 0.7 -0.1
v 0.4 0.7 -0.1
v 0.5 0.7 -0.1
v -0.3 0.8 0
v -0.2 0.8 0
v 0.5 0.8 0
v 0.6 0.8 0
v -0.3 0.8 -0.1
v -0.2 0.8 -0.1
v 0.5 0.8 -0.1
v 0.6 0.8 -0.1
v -0.4 0.9 0
v -0.3 0.9 0
v -0.4 0.9 -0.1
v -0.3 0.9 -0.1
v -0.5 1 0
v -0.4 1 0
v -0.5 1 -0.1
v -0.4 1 -0.1
v -0.6 1.1 0
v -0.5 1.1 0
v -0.6 1.1 -0.1
v -0.5 1.1 -0.1
v -0.7 1.2 0
v -0.6 1.2 0
v -0.7 1.2 -0.1
v -0.6 1.2 -0.1
v -0.8 1.3 0
v -0.7 1.3 0
v -0.8 1.3 -0.1
v -0.7 1.3 -0.1
v 0.6 0.3 0
v 0.8 0.3 0
v 0.6 0.3 -0.1
v 0.8 0.3 -0.1
v -0.2 0.4 0
v -0.1 0.4 0
v 0.5 0.4 0
v 0.6 0.4 0
v -0.2 0.4 -0.1
v -0.1 0.4 -0.1
v 0.5 0.4 -0.1
v 0.6 0.4 -0.1
v -0.1 0.5 0
v 0 0.5 0
v 0.4 0.5 0
v 0.5 0.5 0
v -0.1 0.5 -0.1
v 0 0.5 -0.1
v 0.4 0.5 -0.1
v 0.5 0.5 -0.1
v 0.2 0.8 0
v 0.3 0.8 0
v 0.2 0.8 -0.1
v 0.3 0.8 -0.1
v 0.1 0.9 0
v 0.2 0.9 0
v 0.3 0.9 0
v 0.4 0.9 0
v 0.1 0.9 -0.1
v 0.2 0.9 -0.1
v 0.3 0.9 -0.1
v 0.4 0.9 -0.1
v 0 1 0
v 0.1 1 0
v 0.4 1 0
v 0.6 1 0
v 0 1 -0.1
v 0.1 1 -0.1
v 0.4 1 -0.1
v 0.6 1 -0.1
v -0.1 1.1 0
v 0 1.1 0
v -0.1 1.1 -0.1
v 0 1.1 -0.1
v -0.2 1.2 0
v -0.1 1.2 0
v -0.2 1.2 -0.1
v -0.1 1.2 -0.1
v -0.3 1.3 0
v -0.2 1.3 0
v -0.3 1.3 -0.1
v -0.2 1.3 -0.1
v -0.4 1.4 0
v -0.3 1.4 0
v -0.4 1.4 -0.1
v -0.3 1.4 -0.1
v -0.5 1.5 0
v -0.4 1.5 0
v -0.5 1.5 -0.1
v -0.4 1.5 -0.1
v -0.8 1.6 0
v -0.5 1.6 0
v -0.8 1.6 -0.1
v -0.5 1.6 -0.1

# faces
f 3/3/1 2/3/1 1/3/1
f 4/3/1 2/3/1 3/3/1
f 7/3/1 6/3/1 5/3/1
f 8/3/1 6/3/1 7/3/1
f 11/3/1 10/3/1 9/3/1
f 12/3/1 10/3/1 11/3/1
f 15/3/1 14/3/1 13/3/1
f 16/3/1 14/3/1 15/3/1
f 19/3/1 18/3/1 17/3/1
f 20/3/1 18/3/1 19/3/1
f 23/3/1 22/3/1 21/3/1
f 24/3/1 22/3/1 23/3/1
f 27/3/1 26/3/1 25/3/1
f 28/3/1 26/3/1 27/3/1
f 31/3/1 30/3/1 29/3/1
f 32/3/1 30/3/1 31/3/1
f 35/3/1 34/3/1 33/3/1
f 36/3/1 34/3/1 35/3/1
f 39/3/1 38/3/1 37/3/1
f 40/3/1 38/3/1 39/3/1
f 43/3/1 42/3/1 41/3/1
f 44/3/1 42/3/1 43/3/1
f 47/2/1 46/2/1 45/2/1
f 48/2/1 46/2/1 47/2/1
f 51/3/1 50/3/1 49/3/1
f 52/3/1 50/3/1 51/3/1
f 55/2/1 54/2/1 53/2/1
f 56/2/1 54/2/1 55/2/1
f 59/3/1 58/3/1 57/3/1
f 60/3/1 58/3/1 59/3/1
f 63/3/1 62/3/1 61/3/1
f 64/3/1 62/3/1 63/3/1
f 65/3/2 66/3/2 67/3/2
f 67/3/2 66/3/2 68/3/2
f 69/3/2 70/3/2 71/3/2
f 71/3/2 70/3/2 72/3/2
f 73/3/2 74/3/2 75/3/2
f 75/3/2 74/3/2 76/3/2
f 77/3/2 78/3/2 79/3/2
f 79/3/2 78/3/2 80/3/2
f 81/3/2 82/3/2 83/3/2
f 83/3/2 82/3/2 84/3/2
f 85/3/2 86/3/2 87/3/2
f 87/3/2 86/3/2 88/3/2
f 89/3/2 90/3/2 91/3/2
f 91/3/2 90/3/2 92/3/2
f 93/3/2 94/3/2 95/3/2
f 95/3/2 94/3/2 96/3/2
f 97/3/2 98/3/2 99/3/2
f 99/3/2 98/3/2 100/3/2
f 101/3/2 102/3/2 103/3/2
f 103/3/2 102/3/2 104/3/2
f 105/2/2 106/2/2 107/2/2
f 107/2/2 106/2/2 108/2/2
f 107/3/2 108/3/2 109/3/2
f 109/3/2 108/3/2 110/3/2
f 111/2/2 112/2/2 113/2/2
f 113/2/2 112/2/2 114/2/2
f 115/3/2 116/3/2 117/3/2
f 117/3/2 116/3/2 118/3/2
f 119/2/2 120/2/2 121/2/2
f 121/2/2 120/2/2 122/2/2
f 123/3/2 124/3/2 125/3/2
f 125/3/2 124/3/2 126/3/2
f 127/3/2 128/3/2 129/3/2
f 129/3/2 128/3/2 130/3/2
f 134/3/3 132/3/3 131/3/3
f 135/3/3 132/3/3 134/3/3
f 137/3/3 134/3/3 133/3/3
f 138/4/3 135/4/3 134/4/3
f 138/3/3 134/3/3 137/3/3
f 139/4/3 135/4/3 138/4/3
f 141/3/3 137/3/3 136/3/3
f 142/4/3 138/4/3 137/4/3
f 142/3/3 137/3/3 141/3/3
f 143/5/3 139/5/3 138/5/3
f 143/4/3 138/4/3 142/4/3
f 144/4/3 135/4/3 139/4/3
f 144/5/3 139/5/3 143/5/3
f 145/3/3 132/3/3 135/3/3
f 145/4/3 135/4/3 144/4/3
f 146/3/3 132/3/3 145/3/3
f 148/3/3 141/3/3 140/3/3
f 149/4/3 142/4/3 141/4/3
f 149/3/3 141/3/3 148/3/3
f 150/5/3 143/5/3 142/5/3
f 150/4/3 142/4/3 149/4/3
f 151/4/3 144/4/3 143/4/3
f 151/5/3 143/5/3 150/5/3
f 152/3/3 145/3/3 144/3/3
f 152/4/3 144/4/3 151/4/3
f 153/3/3 145/3/3 152/3/3
f 155/3/3 148/3/3 147/3/3
f 156/4/3 149/4/3 148/4/3
f 156/3/3 148/3/3 155/3/3
f 157/5/3 150/5/3 149/5/3
f 157/4/3 149/4/3 156/4/3
f 158/4/3 151/4/3 150/4/3
f 158/5/3 150/5/3 157/5/3
f 159/3/3 152/3/3 151/3/3
f 159/4/3 151/4/3 158/4/3
f 160/3/3 152/3/3 159/3/3
f 164/3/3 155/3/3 154/3/3
f 165/4/3 156/4/3 155/4/3
f 165/3/3 155/3/3 164/3/3
f 166/5/3 157/5/3 156/5/3
f 166/4/3 156/4/3 165/4/3
f 167/4/3 158/4/3 157/4/3
f 167/5/3 157/5/3 166/5/3
f 168/3/3 159/3/3 158/3/3
f 168/4/3 158/4/3 167/4/3
f 169/3/3 159/3/3 168/3/3
f 170/3/3 162/3/3 161/3/3
f 171/3/3 162/3/3 170/3/3
f 174/3/3 164/3/3 163/3/3
f 175/4/3 165/4/3 164/4/3
f 175/3/3 164/3/3 174/3/3
f 176/5/3 166/5/3 165/5/3
f 176/4/3 165/4/3 175/4/3
f 177/4/3 167/4/3 166/4/3
f 177/5/3 166/5/3 176/5/3
f 178/3/3 168/3/3 167/3/3
f 178/4/3 167/4/3 177/4/3
f 179/3/3 168/3/3 178/3/3
f 180/3/3 170/3/3 161/3/3
f 181/5/3 171/5/3 170/5/3
f 181/3/3 170/3/3 180/3/3
f 182/3/3 172/3/3 171/3/3
f 182/5/3 171/5/3 181/5/3
f 183/3/3 172/3/3 182/3/3
f 184/3/3 174/3/3 173/3/3
f 185/4/3 175/4/3 174/4/3
f 185/3/3 174/3/3 184/3/3
f 186/5/3 176/5/3 175/5/3
f 186/4/3 175/4/3 185/4/3
f 187/4/3 177/4/3 176/4/3
f 187/5/3 176/5/3 186/5/3
f 188/3/3 178/3/3 177/3/3
f 188/4/3 177/4/3 187/4/3
f 189/3/3 178/3/3 188/3/3
f 190/3/3 182/3/3 181/3/3
f 191/5/3 183/5/3 182/5/3
f 191/3/3 182/3/3 190/3/3
f 192/3/3 184/3/3 183/3/3
f 192/5/3 183/5/3 191/5/3
f 193/4/3 185/4/3 184/4/3
f 193/3/3 184/3/3 192/3/3
f 194/5/3 186/5/3 185/5/3
f 194/4/3 185/4/3 193/4/3
f 195/4/3 187/4/3 186/4/3
f 195/5/3 186/5/3 194/5/3
f 196/3/3 188/3/3 187/3/3
f 196/4/3 187/4/3 195/4/3
f 197/3/3 188/3/3 196/3/3
f 198/3/3 192/3/3 191/3/3
f 199/5/3 193/5/3 192/5/3
f 199/3/3 192/3/3 198/3/3
f 199/5/3 194/5/3 193/5/3
f 200/4/3 195/4/3 194/4/3
f 200/5/3 194/5/3 199/5/3
f 201/3/3 196/3/3 195/3/3
f 201/4/3 195/4/3 200/4/3
f 202/3/3 196/3/3 201/3/3
f 204/2/3 199/2/3 198/2/3
f 205/5/3 200/5/3 199/5/3
f 205/2/3 199/2/3 204/2/3
f 206/5/3 200/5/3 205/5/3
f 207/3/3 201/3/3 200/3/3
f 207/5/3 200/5/3 206/5/3
f 208/3/3 201/3/3 207/3/3
f 211/2/3 204/2/3 203/2/3
f 212/1/3 205/1/3 204/1/3
f 212/2/3 204/2/3 211/2/3
f 213/2/3 206/2/3 205/2/3
f 213/1/3 205/1/3 212/1/3
f 214/3/3 207/3/3 206/3/3
f 214/2/3 206/2/3 213/2/3
f 215/5/3 208/5/3 207/5/3
f 215/3/3 207/3/3 214/3/3
f 216/3/3 209/3/3 208/3/3
f 216/5/3 208/5/3 215/5/3
f 217/3/3 209/3/3 216/3/3
f 220/2/3 211/2/3 210/2/3
f 221/1/3 212/1/3 211/1/3
f 221/2/3 211/2/3 220/2/3
f 222/2/3 213/2/3 212/2/3
f 222/1/3 212/1/3 221/1/3
f 223/2/3 213/2/3 222/2/3
f 224/3/3 216/3/3 215/3/3
f 225/5/3 217/5/3 216/5/3
f 225/3/3 216/3/3 224/3/3
f 226/3/3 218/3/3 217/3/3
f 226/5/3 217/5/3 225/5/3
f 227/3/3 220/3/3 219/3/3
f 227/3/3 221/3/3 220/3/3
f 228/3/3 221/3/3 227/3/3
f 229/2/3 222/2/3 221/2/3
f 229/3/3 221/3/3 228/3/3
f 230/2/3 222/2/3 229/2/3
f 231/3/3 226/3/3 225/3/3
f 232/3/3 218/3/3 226/3/3
f 232/3/3 226/3/3 231/3/3
f 233/5/3 228/5/3 227/5/3
f 233/3/3 227/3/3 219/3/3
f 234/3/3 229/3/3 228/3/3
f 234/5/3 228/5/3 233/5/3
f 235/3/3 233/3/3 219/3/3
f 235/3/3 234/3/3 233/3/3
f 236/3/3 229/3/3 234/3/3
f 236/3/3 234/3/3 235/3/3
f 237/3/4 238/3/4 240/3/4
f 240/3/4 238/3/4 241/3/4
f 239/3/4 240/3/4 243/3/4
f 240/4/4 241/4/4 244/4/4
f 243/3/4 240/3/4 244/3/4
f 244/4/4 241/4/4 245/4/4
f 242/3/4 243/3/4 247/3/4
f 243/4/4 244/4/4 248/4/4
f 247/3/4 243/3/4 248/3/4
f 244/5/4 245/5/4 249/5/4
f 248/4/4 244/4/4 249/4/4
f 245/4/4 241/4/4 250/4/4
f 249/5/4 245/5/4 250/5/4
f 241/3/4 238/3/4 251/3/4
f 250/4/4 241/4/4 251/4/4
f 251/3/4 238/3/4 252/3/4
f 246/3/4 247/3/4 254/3/4
f 247/4/4 248/4/4 255/4/4
f 254/3/4 247/3/4 255/3/4
f 248/5/4 249/5/4 256/5/4
f 255/4/4 248/4/4 256/4/4
f 249/4/4 250/4/4 257/4/4
f 256/5/4 249/5/4 257/5/4
f 250/3/4 251/3/4 258/3/4
f 257/4/4 250/4/4 258/4/4
f 258/3/4 251/3/4 259/3/4
f 253/3/4 254/3/4 261/3/4
f 254/4/4 255/4/4 262/4/4
f 261/3/4 254/3/4 262/3/4
f 255/5/4 256/5/4 263/5/4
f 262/4/4 255/4/4 263/4/4
f 256/4/4 257/4/4 264/4/4
f 263/5/4 256/5/4 264/5/4
f 257/3/4 258/3/4 265/3/4
f 264/4/4 257/4/4 265/4/4
f 265/3/4 258/3/4 266/3/4
f 260/3/4 261/3/4 270/3/4
f 261/4/4 262/4/4 271/4/4
f 270/3/4 261/3/4 271/3/4
f 262/5/4 263/5/4 272/5/4
f 271/4/4 262/4/4 272/4/4
f 263/4/4 264/4/4 273/4/4
f 272/5/4 263/5/4 273/5/4
f 264/3/4 265/3/4 274/3/4
f 273/4/4 264/4/4 274/4/4
f 274/3/4 265/3/4 275/3/4
f 267/3/4 268/3/4 276/3/4
f 276/3/4 268/3/4 277/3/4
f 269/3/4 270/3/4 280/3/4
f 270/4/4 271/4/4 281/4/4
f 280/3/4 270/3/4 281/3/4
f 271/5/4 272/5/4 282/5/4
f 281/4/4 271/4/4 282/4/4
f 272/4/4 273/4/4 283/4/4
f 282/5/4 272/5/4 283/5/4
f 273/3/4 274/3/4 284/3/4
f 283/4/4 273/4/4 284/4/4
f 284/3/4 274/3/4 285/3/4
f 267/3/4 276/3/4 286/3/4
f 276/5/4 277/5/4 287/5/4
f 286/3/4 276/3/4 287/3/4
f 277/3/4 278/3/4 288/3/4
f 287/5/4 277/5/4 288/5/4
f 288/3/4 278/3/4 289/3/4
f 279/3/4 280/3/4 290/3/4
f 280/4/4 281/4/4 291/4/4
f 290/3/4 280/3/4 291/3/4
f 281/5/4 282/5/4 292/5/4
f 291/4/4 281/4/4 292/4/4
f 282/4/4 283/4/4 293/4/4
f 292/5/4 282/5/4 293/5/4
f 283/3/4 284/3/4 294/3/4
f 293/4/4 283/4/4 294/4/4
f 294/3/4 284/3/4 295/3/4
f 287/3/4 288/3/4 296/3/4
f 288/5/4 289/5/4 297/5/4
f 296/3/4 288/3/4 297/3/4
f 289/3/4 290/3/4 298/3/4
f 297/5/4 289/5/4 298/5/4
f 290/4/4 291/4/4 299/4/4
f 298/3/4 290/3/4 299/3/4
f 291/5/4 292/5/4 300/5/4
f 299/4/4 291/4/4 300/4/4
f 292/4/4 293/4/4 301/4/4
f 300/5/4 292/5/4 301/5/4
f 293/3/4 294/3/4 302/3/4
f 301/4/4 293/4/4 302/4/4
f 302/3/4 294/3/4 303/3/4
f 297/3/4 298/3/4 304/3/4
f 298/5/4 299/5/4 305/5/4
f 304/3/4 298/3/4 305/3/4
f 299/5/4 300/5/4 305/5/4
f 300/4/4 301/4/4 306/4/4
f 305/5/4 300/5/4 306/5/4
f 301/3/4 302/3/4 307/3/4
f 306/4/4 301/4/4 307/4/4
f 307/3/4 302/3/4 308/3/4
f 304/2/4 305/2/4 310/2/4
f 305/5/4 306/5/4 311/5/4
f 310/2/4 305/2/4 311/2/4
f 311/5/4 306/5/4 312/5/4
f 306/3/4 307/3/4 313/3/4
f 312/5/4 306/5/4 313/5/4
f 313/3/4 307/3/4 314/3/4
f 309/2/4 310/2/4 317/2/4
f 310/1/4 311/1/4 318/1/4
f 317/2/4 310/2/4 318/2/4
f 311/2/4 312/2/4 319/2/4
f 318/1/4 311/1/4 319/1/4
f 312/3/4 313/3/4 320/3/4
f 319/2/4 312/2/4 320/2/4
f 313/5/4 314/5/4 321/5/4
f 320/3/4 313/3/4 321/3/4
f 314/3/4 315/3/4 322/3/4
f 321/5/4 314/5/4 322/5/4
f 322/3/4 315/3/4 323/3/4
f 316/2/4 317/2/4 326/2/4
f 317/1/4 318/1/4 327/1/4
f 326/2/4 317/2/4 327/2/4
f 318/2/4 319/2/4 328/2/4
f 327/1/4 318/1/4 328/1/4
f 328/2/4 319/2/4 329/2/4
f 321/3/4 322/3/4 330/3/4
f 322/5/4 323/5/4 331/5/4
f 330/3/4 322/3/4 331/3/4
f 323/3/4 324/3/4 332/3/4
f 331/5/4 323/5/4 332/5/4
f 325/3/4 326/3/4 333/3/4
f 326/3/4 327/3/4 333/3/4
f 333/3/4 327/3/4 334/3/4
f 327/2/4 328/2/4 335/2/4
f 334/3/4 327/3/4 335/3/4
f 335/2/4 328/2/4 336/2/4
f 331/3/4 332/3/4 337/3/4
f 332/3/4 324/3/4 338/3/4
f 337/3/4 332/3/4 338/3/4
f 333/5/4 334/5/4 339/5/4
f 325/3/4 333/3/4 339/3/4
f 334/3/4 335/3/4 340/3/4
f 339/5/4 334/5/4 340/5/4
f 325/3/4 339/3/4 341/3/4
f 339/3/4 340/3/4 341/3/4
f 340/3/4 335/3/4 342/3/4
f 341/3/4 340/3/4 342/3/4
f 345/3/5 344/3/5 343/3/5
f 346/3/5 344/3/5 345/3/5
f 351/3/5 348/3/5 347/3/5
f 352/3/5 348/3/5 351/3/5
f 353/2/5 350/2/5 349/2/5
f 354/2/5 350/2/5 353/2/5
f 359/3/5 356/3/5 355/3/5
f 360/3/5 356/3/5 359/3/5
f 361/2/5 358/2/5 357/2/5
f 362/2/5 358/2/5 361/2/5
f 366/3/5 364/3/5 363/3/5
f 367/2/5 365/2/5 364/2/5
f 367/3/5 364/3/5 366/3/5
f 368/2/5 365/2/5 367/2/5
f 371/3/5 370/3/5 369/3/5
f 372/3/5 370/3/5 371/3/5
f 377/3/5 374/3/5 373/3/5
f 378/3/5 374/3/5 377/3/5
f 379/3/5 376/3/5 375/3/5
f 380/3/5 376/3/5 379/3/5
f 385/3/5 382/3/5 381/3/5
f 386/3/5 382/3/5 385/3/5
f 387/3/5 384/3/5 383/3/5
f 388/3/5 384/3/5 387/3/5
f 391/3/5 390/3/5 389/3/5
f 392/3/5 390/3/5 391/3/5
f 395/3/5 394/3/5 393/3/5
f 396/3/5 394/3/5 395/3/5
f 399/3/5 398/3/5 397/3/5
f 400/3/5 398/3/5 399/3/5
f 403/3/5 402/3/5 401/3/5
f 404/3/5 402/3/5 403/3/5
f 407/3/5 406/3/5 405/3/5
f 408/3/5 406/3/5 407/3/5
f 409/3/6 410/3/6 411/3/6
f 411/3/6 410/3/6 412/3/6
f 413/3/6 414/3/6 417/3/6
f 417/3/6 414/3/6 418/3/6
f 415/2/6 416/2/6 419/2/6
f 419/2/6 416/2/6 420/2/6
f 421/3/6 422/3/6 425/3/6
f 425/3/6 422/3/6 426/3/6
f 423/2/6 424/2/6 427/2/6
f 427/2/6 424/2/6 428/2/6
f 429/3/6 430/3/6 431/3/6
f 431/3/6 430/3/6 432/3/6
f 433/3/6 434/3/6 437/3/6
f 437/3/6 434/3/6 438/3/6
f 435/3/6 436/3/6 439/3/6
f 439/3/6 436/3/6 440/3/6
f 441/3/6 442/3/6 445/3/6
f 445/3/6 442/3/6 446/3/6
f 443/3/6 444/3/6 447/3/6
f 447/3/6 444/3/6 448/3/6
f 449/3/6 450/3/6 451/3/6
f 451/3/6 450/3/6 452/3/6
f 453/3/6 454/3/6 455/3/6
f 455/3/6 454/3/6 456/3/6
f 457/3/6 458/3/6 459/3/6
f 459/3/6 458/3/6 460/3/6
f 461/3/6 462/3/6 463/3/6
f 463/3/6 462/3/6 464/3/6
f 465/3/6 466/3/6 467/3/6
f 467/3/6 466/3/6 468/3/6
f 469/3/6 470/3/6 471/3/6
f 471/3/6 470/3/6 472/3/6
