# MagicaVoxel @ Ephtracy

# group
o 

# material
mtllib player.mtl
usemtl palette

# normals
vn -1 0 0
vn 1 0 0
vn 0 0 1
vn 0 0 -1
vn 0 -1 0
vn 0 1 0

# texcoords
vt 0.205078 0.5
vt 0.587891 0.5
vt 0.873047 0.5
vt 0.876953 0.5
vt 0.935547 0.5
vt 0.958984 0.5
vt 0.986328 0.5
vt 0.994141 0.5

# verts
v -0.6 1 0.1
v -0.6 1 -0.1
v -0.6 1.8 0.1
v -0.6 1.8 -0.1
v -0.6 2 0.1
v -0.6 2 -0.1
v -0.4 0 0.1
v -0.4 0 -0.1
v -0.4 0.2 0.1
v -0.4 0.2 -0.1
v -0.4 1 0.1
v -0.4 1 -0.1
v -0.4 2 0.4
v -0.4 2 0.1
v -0.4 2 -0.1
v -0.4 2 -0.5
v -0.4 2.6 -0.1
v -0.4 2.6 -0.5
v -0.4 2.7 0.4
v -0.4 2.7 -0.1
v -0.4 2.9 0.4
v -0.4 2.9 -0.5
v 0.3 0 0.1
v 0.3 0 -0.1
v 0.3 0.2 0.1
v 0.3 0.2 -0.1
v 0.3 0.8 0.1
v 0.3 0.8 -0.1
v -0.2 0 0.1
v -0.2 0 -0.1
v -0.2 0.2 0.1
v -0.2 0.2 -0.1
v -0.2 0.8 0.1
v -0.2 0.8 -0.1
v 0.5 0 0.1
v 0.5 0 -0.1
v 0.5 0.2 0.1
v 0.5 0.2 -0.1
v 0.5 1 0.1
v 0.5 1 -0.1
v 0.5 2 0.4
v 0.5 2 0.1
v 0.5 2 -0.1
v 0.5 2 -0.5
v 0.5 2.6 -0.1
v 0.5 2.6 -0.5
v 0.5 2.7 0.4
v 0.5 2.7 -0.1
v 0.5 2.9 0.4
v 0.5 2.9 -0.5
v 0.7 1 0.1
v 0.7 1 -0.1
v 0.7 1.8 0.1
v 0.7 1.8 -0.1
v 0.7 2 0.1
v 0.7 2 -0.1
v -0.4 2 0.4
v -0.4 2.7 0.4
v -0.4 2.9 0.4
v -0.3 2.6 0.4
v -0.3 2.7 0.4
v -0.3 2.8 0.4
v -0.2 2.1 0.4
v -0.2 2.3 0.4
v -0.2 2.6 0.4
v -0.2 2.7 0.4
v -0.1 2.2 0.4
v -0.1 2.3 0.4
v -0.1 2.6 0.4
v -0.1 2.7 0.4
v 0.2 2.2 0.4
v 0.2 2.3 0.4
v 0.2 2.6 0.4
v 0.2 2.7 0.4
v 0.3 2.1 0.4
v 0.3 2.3 0.4
v 0.3 2.6 0.4
v 0.3 2.7 0.4
v 0.4 2.6 0.4
v 0.4 2.7 0.4
v 0.4 2.8 0.4
v 0.5 2 0.4
v 0.5 2.7 0.4
v 0.5 2.9 0.4
v -0.6 1 0.1
v -0.6 1.8 0.1
v -0.6 2 0.1
v -0.4 0 0.1
v -0.4 0.2 0.1
v -0.4 1 0.1
v -0.4 1.8 0.1
v -0.4 2 0.1
v -0.2 0 0.1
v -0.2 0.2 0.1
v -0.2 0.8 0.1
v 0.3 0 0.1
v 0.3 0.2 0.1
v 0.3 0.8 0.1
v 0.5 0 0.1
v 0.5 0.2 0.1
v 0.5 1 0.1
v 0.5 1.8 0.1
v 0.5 2 0.1
v 0.7 1 0.1
v 0.7 1.8 0.1
v 0.7 2 0.1
v -0.6 1 -0.1
v -0.6 1.8 -0.1
v -0.6 2 -0.1
v -0.4 0 -0.1
v -0.4 0.2 -0.1
v -0.4 1 -0.1
v -0.4 1.8 -0.1
v -0.4 2 -0.1
v -0.2 0 -0.1
v -0.2 0.2 -0.1
v -0.2 0.8 -0.1
v 0.3 0 -0.1
v 0.3 0.2 -0.1
v 0.3 0.8 -0.1
v 0.5 0 -0.1
v 0.5 0.2 -0.1
v 0.5 1 -0.1
v 0.5 1.8 -0.1
v 0.5 2 -0.1
v 0.7 1 -0.1
v 0.7 1.8 -0.1
v 0.7 2 -0.1
v -0.4 2 -0.5
v -0.4 2.6 -0.5
v -0.4 2.9 -0.5
v 0.5 2 -0.5
v 0.5 2.6 -0.5
v 0.5 2.9 -0.5
v -0.4 0 0.1
v -0.2 0 0.1
v 0.3 0 0.1
v 0.5 0 0.1
v -0.4 0 -0.1
v -0.2 0 -0.1
v 0.3 0 -0.1
v 0.5 0 -0.1
v -0.2 0.8 0.1
v 0.3 0.8 0.1
v -0.2 0.8 -0.1
v 0.3 0.8 -0.1
v -0.6 1 0.1
v -0.4 1 0.1
v 0.5 1 0.1
v 0.7 1 0.1
v -0.6 1 -0.1
v -0.4 1 -0.1
v 0.5 1 -0.1
v 0.7 1 -0.1
v -0.4 2 0.4
v 0.5 2 0.4
v -0.4 2 0.1
v 0.5 2 0.1
v -0.4 2 -0.1
v 0.5 2 -0.1
v -0.4 2 -0.5
v 0.5 2 -0.5
v -0.6 2 0.1
v -0.4 2 0.1
v 0.5 2 0.1
v 0.7 2 0.1
v -0.6 2 -0.1
v -0.4 2 -0.1
v 0.5 2 -0.1
v 0.7 2 -0.1
v -0.4 2.9 0.4
v 0.5 2.9 0.4
v -0.4 2.9 -0.5
v 0.5 2.9 -0.5

# faces
f 3/1/1 2/1/1 1/1/1
f 4/1/1 2/1/1 3/1/1
f 5/2/1 4/2/1 3/2/1
f 6/2/1 4/2/1 5/2/1
f 9/7/1 8/7/1 7/7/1
f 10/7/1 8/7/1 9/7/1
f 11/5/1 10/5/1 9/5/1
f 12/5/1 10/5/1 11/5/1
f 17/1/1 15/1/1 14/1/1
f 17/1/1 16/1/1 15/1/1
f 17/1/1 14/1/1 13/1/1
f 18/1/1 16/1/1 17/1/1
f 19/1/1 17/1/1 13/1/1
f 20/3/1 18/3/1 17/3/1
f 20/1/1 17/1/1 19/1/1
f 21/3/1 20/3/1 19/3/1
f 22/3/1 18/3/1 20/3/1
f 22/3/1 20/3/1 21/3/1
f 25/7/1 24/7/1 23/7/1
f 26/7/1 24/7/1 25/7/1
f 27/5/1 26/5/1 25/5/1
f 28/5/1 26/5/1 27/5/1
f 29/7/2 30/7/2 31/7/2
f 31/7/2 30/7/2 32/7/2
f 31/5/2 32/5/2 33/5/2
f 33/5/2 32/5/2 34/5/2
f 35/7/2 36/7/2 37/7/2
f 37/7/2 36/7/2 38/7/2
f 37/5/2 38/5/2 39/5/2
f 39/5/2 38/5/2 40/5/2
f 42/1/2 43/1/2 45/1/2
f 43/1/2 44/1/2 45/1/2
f 41/1/2 42/1/2 45/1/2
f 45/1/2 44/1/2 46/1/2
f 41/1/2 45/1/2 47/1/2
f 45/3/2 46/3/2 48/3/2
f 47/1/2 45/1/2 48/1/2
f 47/3/2 48/3/2 49/3/2
f 48/3/2 46/3/2 50/3/2
f 49/3/2 48/3/2 50/3/2
f 51/1/2 52/1/2 53/1/2
f 53/1/2 52/1/2 54/1/2
f 53/2/2 54/2/2 55/2/2
f 55/2/2 54/2/2 56/2/2
f 60/1/3 58/1/3 57/1/3
f 61/3/3 59/3/3 58/3/3
f 61/1/3 58/1/3 60/1/3
f 62/3/3 59/3/3 61/3/3
f 63/1/3 60/1/3 57/1/3
f 64/1/3 60/1/3 63/1/3
f 65/8/3 61/8/3 60/8/3
f 65/1/3 60/1/3 64/1/3
f 66/1/3 62/1/3 61/1/3
f 66/8/3 61/8/3 65/8/3
f 67/4/3 64/4/3 63/4/3
f 68/1/3 65/1/3 64/1/3
f 68/4/3 64/4/3 67/4/3
f 69/6/3 66/6/3 65/6/3
f 69/1/3 65/1/3 68/1/3
f 70/1/3 62/1/3 66/1/3
f 70/6/3 66/6/3 69/6/3
f 71/1/3 69/1/3 68/1/3
f 71/4/3 67/4/3 63/4/3
f 71/1/3 70/1/3 69/1/3
f 71/1/3 68/1/3 67/1/3
f 72/1/3 70/1/3 71/1/3
f 73/1/3 70/1/3 72/1/3
f 74/1/3 62/1/3 70/1/3
f 74/1/3 70/1/3 73/1/3
f 75/1/3 63/1/3 57/1/3
f 75/4/3 71/4/3 63/4/3
f 75/4/3 72/4/3 71/4/3
f 76/1/3 73/1/3 72/1/3
f 76/4/3 72/4/3 75/4/3
f 77/6/3 74/6/3 73/6/3
f 77/1/3 73/1/3 76/1/3
f 78/1/3 62/1/3 74/1/3
f 78/6/3 74/6/3 77/6/3
f 79/1/3 77/1/3 76/1/3
f 79/1/3 76/1/3 75/1/3
f 79/8/3 78/8/3 77/8/3
f 80/1/3 62/1/3 78/1/3
f 80/8/3 78/8/3 79/8/3
f 81/3/3 59/3/3 62/3/3
f 81/1/3 62/1/3 80/1/3
f 82/1/3 80/1/3 79/1/3
f 82/1/3 75/1/3 57/1/3
f 82/1/3 79/1/3 75/1/3
f 83/3/3 81/3/3 80/3/3
f 83/1/3 80/1/3 82/1/3
f 84/3/3 59/3/3 81/3/3
f 84/3/3 81/3/3 83/3/3
f 90/1/3 86/1/3 85/1/3
f 91/2/3 87/2/3 86/2/3
f 91/1/3 86/1/3 90/1/3
f 92/2/3 87/2/3 91/2/3
f 93/7/3 89/7/3 88/7/3
f 94/5/3 90/5/3 89/5/3
f 94/7/3 89/7/3 93/7/3
f 95/5/3 90/5/3 94/5/3
f 98/5/3 90/5/3 95/5/3
f 99/7/3 97/7/3 96/7/3
f 100/5/3 98/5/3 97/5/3
f 100/7/3 97/7/3 99/7/3
f 101/2/3 91/2/3 90/2/3
f 101/5/3 98/5/3 100/5/3
f 101/2/3 92/2/3 91/2/3
f 101/5/3 90/5/3 98/5/3
f 102/2/3 92/2/3 101/2/3
f 103/2/3 92/2/3 102/2/3
f 104/1/3 102/1/3 101/1/3
f 105/2/3 103/2/3 102/2/3
f 105/1/3 102/1/3 104/1/3
f 106/2/3 103/2/3 105/2/3
f 107/1/4 108/1/4 112/1/4
f 108/2/4 109/2/4 113/2/4
f 112/1/4 108/1/4 113/1/4
f 113/2/4 109/2/4 114/2/4
f 110/7/4 111/7/4 115/7/4
f 111/5/4 112/5/4 116/5/4
f 115/7/4 111/7/4 116/7/4
f 116/5/4 112/5/4 117/5/4
f 117/5/4 112/5/4 120/5/4
f 118/7/4 119/7/4 121/7/4
f 119/5/4 120/5/4 122/5/4
f 121/7/4 119/7/4 122/7/4
f 112/2/4 113/2/4 123/2/4
f 122/5/4 120/5/4 123/5/4
f 113/2/4 114/2/4 123/2/4
f 120/5/4 112/5/4 123/5/4
f 123/2/4 114/2/4 124/2/4
f 124/2/4 114/2/4 125/2/4
f 123/1/4 124/1/4 126/1/4
f 124/2/4 125/2/4 127/2/4
f 126/1/4 124/1/4 127/1/4
f 127/2/4 125/2/4 128/2/4
f 129/1/4 130/1/4 132/1/4
f 130/3/4 131/3/4 133/3/4
f 132/1/4 130/1/4 133/1/4
f 133/3/4 131/3/4 134/3/4
f 139/7/5 136/7/5 135/7/5
f 140/7/5 136/7/5 139/7/5
f 141/7/5 138/7/5 137/7/5
f 142/7/5 138/7/5 141/7/5
f 145/5/5 144/5/5 143/5/5
f 146/5/5 144/5/5 145/5/5
f 151/1/5 148/1/5 147/1/5
f 152/1/5 148/1/5 151/1/5
f 153/1/5 150/1/5 149/1/5
f 154/1/5 150/1/5 153/1/5
f 157/1/5 156/1/5 155/1/5
f 158/1/5 156/1/5 157/1/5
f 161/1/5 160/1/5 159/1/5
f 162/1/5 160/1/5 161/1/5
f 163/2/6 164/2/6 167/2/6
f 167/2/6 164/2/6 168/2/6
f 165/2/6 166/2/6 169/2/6
f 169/2/6 166/2/6 170/2/6
f 171/3/6 172/3/6 173/3/6
f 173/3/6 172/3/6 174/3/6
